<svg width="1451" height="348" viewBox="0 0 1451 348" fill="none" xmlns="http://www.w3.org/2000/svg">
<path d="M1247.06 75.3842H1172.6C1149.79 75.3842 1132.32 80.9399 1120.16 92.0512C1114.16 97.5821 1109.42 104.344 1106.27 111.875C1103.13 119.406 1101.64 127.528 1101.93 135.686V152.153H1082.76C1080.15 152.079 1077.54 152.535 1075.11 153.491C1072.67 154.448 1070.46 155.886 1068.59 157.719C1064.96 161.527 1062.93 166.589 1062.93 171.853C1062.93 177.117 1064.96 182.179 1068.59 185.986C1070.46 187.816 1072.68 189.249 1075.11 190.199C1077.55 191.15 1080.15 191.6 1082.76 191.52H1101.93V318.189C1101.84 321.055 1102.34 323.909 1103.37 326.582C1104.41 329.256 1105.97 331.695 1107.96 333.756C1112.01 337.775 1117.49 340.029 1123.19 340.029C1128.9 340.029 1134.38 337.775 1138.43 333.756C1140.42 331.695 1141.98 329.256 1143.02 326.582C1144.05 323.909 1144.54 321.055 1144.46 318.189V191.52H1176.73C1179.34 191.6 1181.94 191.15 1184.38 190.199C1186.81 189.249 1189.03 187.816 1190.9 185.986C1194.53 182.179 1196.56 177.117 1196.56 171.853C1196.56 166.589 1194.53 161.527 1190.9 157.719C1189.03 155.886 1186.81 154.448 1184.38 153.491C1181.95 152.535 1179.34 152.079 1176.73 152.153H1144.46V135.486C1144.44 130.007 1146.19 124.668 1149.43 120.252C1152.76 115.618 1158.36 113.585 1166.4 113.585H1247.06C1249.6 113.657 1252.12 113.212 1254.47 112.278C1256.83 111.344 1258.97 109.94 1260.76 108.152C1264.32 104.489 1266.3 99.5867 1266.3 94.4845C1266.3 89.3824 1264.32 84.4808 1260.76 80.8177C1258.97 79.0296 1256.83 77.6257 1254.47 76.6916C1252.12 75.7575 1249.6 75.3126 1247.06 75.3842Z" fill="#323232"/>
<path d="M615.982 207.614C600.371 201.016 584.001 196.381 567.248 193.814C549.27 190.48 536.092 186.191 527.714 180.947C523.85 178.583 520.652 175.274 518.421 171.332C516.19 167.39 515.001 162.944 514.964 158.415C514.927 153.885 516.045 149.421 518.211 145.443C520.378 141.465 523.522 138.105 527.347 135.679C535.503 130.079 547.025 127.279 561.914 127.279C572.079 127.56 582.109 129.683 591.515 133.546C600.752 136.756 609.425 141.402 617.216 147.313C619.943 149.462 623.311 150.635 626.783 150.646C629.454 150.656 632.097 150.106 634.542 149.032C636.988 147.959 639.182 146.385 640.983 144.413C642.9 142.516 644.42 140.258 645.456 137.768C646.492 135.279 647.022 132.608 647.016 129.912C646.905 126.165 645.915 122.496 644.126 119.202C642.336 115.907 639.798 113.079 636.716 110.945C626.988 102.995 615.864 96.9252 603.915 93.0448C590.387 88.4875 576.189 86.2339 561.914 86.378C546.459 86.1682 531.128 89.1528 516.88 95.1448C504.087 100.472 493.037 109.27 484.98 120.545C477.053 132.056 472.959 145.774 473.279 159.746C473.279 200.769 499.158 225.103 550.914 232.748C571.493 235.837 586.504 240.426 595.949 246.515C600.348 249.073 603.982 252.762 606.473 257.2C608.964 261.637 610.222 266.661 610.116 271.748C610.116 280.637 605.338 288.027 595.782 293.916C585.454 300.097 573.579 303.207 561.548 302.882C550.671 303.121 539.847 301.3 529.647 297.516C519.584 293.261 510.248 287.458 501.98 280.315C498.591 277.53 494.333 276.021 489.946 276.049C487.219 276.009 484.514 276.547 482.009 277.627C479.504 278.707 477.256 280.305 475.413 282.315C473.492 284.202 471.969 286.454 470.933 288.939C469.897 291.423 469.368 294.09 469.379 296.782C469.499 300.449 470.417 304.046 472.07 307.322C473.722 310.597 476.068 313.473 478.946 315.749C489.711 325.527 502.391 332.962 516.18 337.583C530.872 342.091 546.182 344.262 561.548 344.017C577.032 344.144 592.371 341.033 606.582 334.883C619.817 329.303 631.324 320.293 639.916 308.783C648.351 297.35 652.78 283.454 652.516 269.248C652.516 253.248 649.438 240.426 643.283 230.781C636.65 220.55 627.157 212.493 615.982 207.614Z" fill="#323232"/>
<path d="M1446.53 306.19L1395.46 242.155L1444.4 182.154C1447.66 178.236 1449.42 173.285 1449.36 168.187C1449.34 165.684 1448.8 163.212 1447.79 160.921C1446.79 158.629 1445.32 156.565 1443.5 154.853C1441.64 152.937 1439.41 151.425 1436.95 150.409C1434.48 149.394 1431.83 148.899 1429.16 148.953C1425.73 148.969 1422.37 149.866 1419.38 151.559C1416.4 153.252 1413.9 155.683 1412.13 158.62L1371.73 212.654L1328.1 157.887C1326.3 155.364 1323.97 153.264 1321.28 151.733C1318.58 150.202 1315.59 149.278 1312.5 149.024C1309.41 148.77 1306.3 149.193 1303.4 150.263C1300.49 151.333 1297.85 153.025 1295.66 155.22C1293.54 157.138 1291.85 159.485 1290.7 162.105C1289.55 164.725 1288.97 167.559 1289 170.42C1288.98 175.12 1290.62 179.676 1293.63 183.287L1344.66 247.355L1295.5 307.89C1292.15 311.639 1290.25 316.464 1290.16 321.49C1290.19 324.072 1290.81 326.612 1291.97 328.921C1293.12 331.231 1294.78 333.249 1296.83 334.824C1300.71 338.389 1305.76 340.426 1311.03 340.557C1314.3 340.552 1317.53 339.751 1320.43 338.224C1323.44 336.607 1326.03 334.327 1328.03 331.557L1369.53 278.222L1412.06 331.557C1413.78 334.155 1416.06 336.333 1418.73 337.928C1421.41 339.523 1424.41 340.494 1427.51 340.77C1430.61 341.045 1433.73 340.618 1436.64 339.519C1439.56 338.42 1442.19 336.679 1444.33 334.424C1446.46 332.477 1448.16 330.102 1449.31 327.453C1450.46 324.805 1451.03 321.943 1451 319.057C1451.06 314.377 1449.48 309.824 1446.53 306.19Z" fill="#323232"/>
<path d="M1028.12 290.793C1025.45 290.729 1022.8 291.217 1020.32 292.226C1017.89 293.366 1015.58 294.751 1013.42 296.36C1011.56 297.752 1009.6 299.011 1007.56 300.127C1001.89 302.949 993.266 304.371 981.688 304.393C974.34 304.606 967.035 303.196 960.294 300.263C953.552 297.331 947.541 292.948 942.687 287.426C932.331 275.601 926.883 260.267 927.454 244.559C927.454 226.647 932.476 212.203 942.521 201.225C952.565 190.247 966.454 184.691 984.188 184.558C987.947 184.681 991.686 185.161 995.355 185.991C998.968 186.666 1002.48 187.786 1005.82 189.324C1008.16 190.632 1010.39 192.126 1012.49 193.791C1014.6 195.513 1016.91 196.958 1019.39 198.091C1022.32 199.263 1025.47 199.808 1028.62 199.691C1030.95 199.746 1033.27 199.238 1035.36 198.211C1037.45 197.184 1039.27 195.668 1040.66 193.791C1043.72 189.864 1045.34 185.004 1045.26 180.024C1045.26 169.513 1039.11 161.102 1026.82 154.79C1014.53 148.479 998.344 145.312 978.255 145.29C961.323 145.026 944.646 149.432 930.054 158.024C915.854 166.405 904.302 178.616 896.72 193.258C888.598 209.203 884.522 226.901 884.853 244.792C884.607 262.325 888.49 279.671 896.186 295.427C903.327 310.075 914.452 322.414 928.287 331.027C942.758 339.776 959.415 344.238 976.321 343.894C988.047 343.962 999.728 342.46 1011.06 339.427C1020.49 337.135 1029.41 333.062 1037.32 327.427C1043.99 322.427 1047.32 317.06 1047.32 311.327C1047.53 305.964 1045.7 300.721 1042.19 296.66C1040.42 294.709 1038.24 293.172 1035.81 292.158C1033.38 291.144 1030.75 290.678 1028.12 290.793Z" fill="#323232"/>
<path d="M814.517 158.058C801.333 149.645 786.022 145.17 770.383 145.157C754.645 145.135 739.2 149.411 725.715 157.524C711.443 166.093 699.789 178.405 692.015 193.125C683.232 209.758 678.838 228.355 679.248 247.16C678.985 264.44 683.138 281.501 691.315 296.727C699.215 311.236 711.076 323.201 725.516 331.228C741.453 339.851 759.367 344.16 777.483 343.728C788.947 343.713 800.327 341.775 811.15 337.995C820.805 334.99 829.838 330.27 837.818 324.061C844.484 318.794 847.818 312.95 847.818 306.527C847.74 301.776 845.806 297.243 842.43 293.898C839.054 290.553 834.503 288.661 829.751 288.627C825.521 288.765 821.385 289.907 817.684 291.96C816.517 292.66 814.35 294.027 811.017 296.061C806.938 298.481 802.585 300.406 798.05 301.794C790.674 303.831 783.03 304.73 775.383 304.461C762.516 304.553 750.033 300.073 740.161 291.819C730.29 283.565 723.67 272.074 721.482 259.393H838.485C843.937 259.466 849.231 257.559 853.385 254.026C855.437 252.316 857.095 250.183 858.246 247.772C859.396 245.361 860.013 242.73 860.052 240.059C860.152 223.493 855.862 207.195 847.618 192.825C839.708 178.619 828.318 166.656 814.517 158.058ZM814.684 223.526H721.816C726.793 197.525 742.982 184.525 770.383 184.525C781.265 184.455 791.817 188.26 800.15 195.259C804.215 198.323 807.604 202.193 810.104 206.626C812.605 211.06 814.164 215.962 814.684 221.026V223.526Z" fill="#323232"/>
<path d="M1241.96 148.752C1239.12 148.671 1236.3 149.188 1233.67 150.267C1231.04 151.346 1228.66 152.965 1226.7 155.019C1224.71 157.086 1223.16 159.527 1222.13 162.2C1221.1 164.872 1220.61 167.723 1220.7 170.586V318.356C1220.61 321.219 1221.1 324.069 1222.13 326.742C1223.16 329.414 1224.71 331.855 1226.7 333.923C1230.76 337.935 1236.24 340.185 1241.95 340.185C1247.66 340.185 1253.14 337.935 1257.2 333.923C1259.19 331.861 1260.75 329.422 1261.79 326.749C1262.82 324.075 1263.31 321.222 1263.23 318.356V170.586C1263.31 167.72 1262.82 164.866 1261.79 162.193C1260.75 159.519 1259.19 157.08 1257.2 155.019C1255.24 152.968 1252.87 151.35 1250.24 150.271C1247.62 149.191 1244.8 148.674 1241.96 148.752Z" fill="#323232"/>
<path d="M122.336 254.705H279.406C300.073 254.705 307.473 239.205 307.473 220.104C307.473 201.004 300.073 185.504 279.406 185.504H112.735C81.4015 185.504 65.4347 154.403 65.4347 125.502C65.4347 96.6019 81.4015 69.2681 112.735 69.2015H371.174C391.875 69.2015 399.242 53.7011 399.242 34.6007C399.242 15.5003 391.875 0 371.174 0H122.336C49.6009 0 0 58.2677 0 125.502C0 192.737 49.6009 254.705 122.336 254.705Z" fill="#5A00EB"/>
<path d="M281.638 92.8674H124.602C103.935 92.8674 96.5344 108.368 96.5344 127.468C96.5344 146.569 103.935 162.069 124.602 162.069H291.272C322.606 162.069 338.573 193.17 338.573 222.07C338.573 250.971 322.606 278.305 291.272 278.371H32.733C12.0659 278.371 4.69922 293.872 4.69922 312.972C4.69922 332.072 12.0659 347.606 32.733 347.606H281.638C354.406 347.606 404.007 289.338 404.007 222.07C404.007 154.802 354.406 92.8674 281.638 92.8674Z" fill="#5A00EB"/>
</svg>
